<svg width="15" height="15" viewBox="0 0 15 15" fill="none" xmlns="http://www.w3.org/2000/svg">
<path d="M1.29106 1.29109C1.21179 1.37038 1.16356 1.47546 1.15514 1.58726C1.14671 1.69907 1.17863 1.81019 1.24512 1.90047L1.29106 1.9539L3.81293 4.47578C2.5835 5.33727 1.70579 6.61305 1.34074 8.06922C1.31386 8.18867 1.33479 8.3139 1.39905 8.41812C1.4633 8.52235 1.56579 8.59729 1.68459 8.62693C1.80339 8.65657 1.92907 8.63855 2.03475 8.57672C2.14044 8.5149 2.21774 8.41417 2.25012 8.29609C2.57428 7.00369 3.37279 5.88055 4.48699 5.14984L5.61856 6.2814C5.16464 6.75325 4.91392 7.38433 4.92026 8.03903C4.9266 8.69374 5.1895 9.31983 5.65247 9.7828C6.11544 10.2458 6.74153 10.5087 7.39624 10.515C8.05095 10.5214 8.68202 10.2706 9.15387 9.81672L12.8532 13.5161C12.9369 13.5994 13.0489 13.6481 13.1669 13.6524C13.2848 13.6567 13.4001 13.6164 13.4896 13.5394C13.5791 13.4624 13.6363 13.3545 13.6497 13.2372C13.6631 13.1199 13.6318 13.0019 13.562 12.9067L13.5161 12.8533L9.69574 9.03203L8.94574 8.28203L7.15231 6.48859L5.35324 4.68953L4.64543 3.98172L1.95387 1.29109C1.86596 1.20321 1.74676 1.15385 1.62246 1.15385C1.49817 1.15385 1.37896 1.20321 1.29106 1.29109ZM7.40356 3.3414C6.77824 3.3414 6.17168 3.43328 5.59793 3.60672L6.37137 4.37922C7.70863 4.11433 9.09655 4.37344 10.2482 5.10297C11.3998 5.8325 12.227 6.97666 12.5589 8.2989C12.5912 8.41698 12.6685 8.51771 12.7742 8.57954C12.8799 8.64136 13.0056 8.65938 13.1244 8.62975C13.2432 8.60011 13.3457 8.52516 13.4099 8.42094C13.4742 8.31671 13.4951 8.19148 13.4682 8.07203C13.1291 6.72043 12.3482 5.52086 11.2494 4.66379C10.1506 3.80673 8.79705 3.3413 7.40356 3.3414ZM7.52543 5.53515L9.90106 7.90984C9.87061 7.28962 9.61055 6.7029 9.17146 6.26381C8.73237 5.82472 8.14565 5.56559 7.52543 5.53515Z" fill="#303030"/>
</svg>
