<svg width="15" height="15" viewBox="0 0 15 15" fill="none" xmlns="http://www.w3.org/2000/svg">
<path d="M1.875 8.125C4.125 3.125 10.875 3.125 13.125 8.125" stroke="#303030" stroke-linecap="round" stroke-linejoin="round"/>
<path d="M7.51459 10.8078C7.24942 10.8078 6.98685 10.7556 6.74187 10.6541C6.49688 10.5527 6.27428 10.4039 6.08678 10.2164C5.89928 10.0289 5.75054 9.80632 5.64907 9.56133C5.54759 9.31635 5.49536 9.05378 5.49536 8.78861C5.49536 8.52344 5.54759 8.26087 5.64907 8.01588C5.75054 7.7709 5.89928 7.5483 6.08678 7.3608C6.27428 7.17329 6.49688 7.02456 6.74187 6.92308C6.98685 6.82161 7.24942 6.76938 7.51459 6.76938C8.05013 6.76938 8.56372 6.98212 8.9424 7.3608C9.32108 7.73948 9.53382 8.25307 9.53382 8.78861C9.53382 9.32414 9.32108 9.83774 8.9424 10.2164C8.56372 10.5951 8.05013 10.8078 7.51459 10.8078Z" fill="#303030" stroke="#303030" stroke-width="0.6875" stroke-linecap="round" stroke-linejoin="round"/>
</svg>
